<svg id="svg" version="1.1" xmlns="http://www.w3.org/2000/svg" xmlns:xlink="http://www.w3.org/1999/xlink" width="32" height="32" viewBox="0, 0, 400,400"><g id="svgg"><path id="path1" d="M213.600 0.886 C 213.600 1.405,214.381 2.566,215.485 3.686 C 216.522 4.739,217.197 5.603,216.985 5.607 C 216.773 5.611,214.890 5.878,212.800 6.200 C 210.710 6.522,207.470 6.793,205.600 6.803 C 203.730 6.812,201.390 7.010,200.400 7.243 C 199.410 7.476,195.990 7.732,192.800 7.813 C 189.610 7.894,185.380 8.148,183.400 8.377 C 181.302 8.620,176.953 8.687,172.979 8.538 C 167.802 8.344,165.632 8.415,163.979 8.833 C 162.352 9.245,158.155 9.399,147.400 9.440 C 118.118 9.553,73.768 10.316,70.800 10.758 C 69.150 11.004,65.370 11.376,62.400 11.585 C 56.575 11.994,55.216 12.331,52.417 14.056 C 51.418 14.673,49.478 15.435,48.107 15.751 C 45.255 16.409,40.040 19.206,38.228 21.050 C 37.553 21.738,36.306 22.651,35.457 23.081 C 32.876 24.387,23.040 33.759,22.566 35.365 C 22.431 35.824,21.736 36.750,21.022 37.423 C 20.018 38.369,19.663 39.102,19.457 40.657 C 19.258 42.154,18.823 43.097,17.752 44.348 C 16.866 45.383,16.018 47.015,15.542 48.601 C 15.117 50.016,14.313 51.717,13.755 52.381 C 11.575 54.971,10.539 70.030,9.983 107.200 C 9.764 121.830,9.415 140.370,9.208 148.400 C 9.001 156.430,8.748 166.870,8.646 171.600 C 8.281 188.474,6.215 212.289,4.949 214.221 C 4.078 215.551,1.796 217.200,0.827 217.200 L 0.000 217.200 0.000 286.573 L 0.000 355.947 1.100 356.113 L 2.200 356.280 1.100 356.340 C -0.274 356.415,-0.365 357.200,1.000 357.200 C 1.975 357.200,2.300 358.170,2.034 360.281 C 1.881 361.500,3.220 363.649,4.386 364.055 C 5.054 364.288,5.616 364.686,5.634 364.939 C 5.653 365.193,5.698 366.030,5.734 366.800 C 5.782 367.820,5.976 368.187,6.449 368.153 C 6.877 368.122,7.036 368.342,6.916 368.798 C 6.728 369.520,8.631 371.352,9.202 370.999 C 9.371 370.894,9.502 371.032,9.492 371.304 C 9.384 374.299,9.834 375.186,11.648 375.555 C 12.862 375.801,13.020 375.992,13.200 377.415 C 13.389 378.910,13.500 379.024,15.173 379.428 C 16.891 379.842,16.948 379.905,16.973 381.428 C 17.000 382.982,17.018 383.000,18.572 383.027 C 20.095 383.052,20.158 383.109,20.572 384.827 C 20.988 386.549,21.049 386.604,22.700 386.723 C 24.089 386.823,24.400 386.992,24.400 387.641 C 24.400 388.723,26.155 390.401,27.282 390.396 C 28.141 390.391,28.116 390.325,26.898 389.365 C 25.730 388.445,24.485 386.800,24.955 386.800 C 25.268 386.800,28.412 390.122,28.251 390.282 C 28.030 390.503,30.481 393.200,30.902 393.200 C 31.097 393.200,31.527 393.470,31.857 393.800 C 32.228 394.171,33.210 394.400,34.429 394.400 C 35.862 394.400,36.400 394.554,36.400 394.966 C 36.400 395.816,39.456 398.069,40.495 397.985 C 43.010 397.781,43.600 397.973,43.600 399.000 C 43.600 399.622,43.827 400.000,44.200 400.000 C 44.573 400.000,44.800 399.622,44.800 399.000 C 44.800 397.497,46.383 397.593,46.447 399.100 L 46.495 400.200 46.800 399.000 L 47.105 397.800 47.153 398.900 L 47.200 400.000 116.200 400.000 L 185.200 400.000 185.200 399.000 C 185.200 398.031,185.111 397.998,182.300 397.941 L 179.400 397.882 181.669 397.639 C 184.856 397.297,185.016 396.812,181.967 396.737 L 179.400 396.673 182.800 396.375 C 189.071 395.825,190.800 395.517,190.800 394.950 C 190.800 393.102,193.850 392.211,201.168 391.923 C 212.993 391.458,221.330 390.902,222.800 390.479 C 224.153 390.090,238.800 389.882,309.000 389.252 L 339.000 388.983 340.927 387.904 C 341.987 387.311,343.517 386.715,344.327 386.580 C 345.137 386.444,346.610 386.088,347.600 385.788 C 348.590 385.488,350.300 385.119,351.400 384.969 C 353.615 384.667,355.172 383.997,356.012 382.986 C 356.316 382.619,357.473 381.710,358.583 380.965 C 367.397 375.050,370.945 372.038,373.163 368.587 C 374.272 366.863,376.109 364.518,378.443 361.850 C 379.237 360.942,380.388 359.390,381.001 358.400 C 381.614 357.410,382.719 356.006,383.457 355.281 C 384.526 354.231,384.800 353.643,384.800 352.400 C 384.800 349.901,385.601 346.713,386.609 345.200 C 388.875 341.801,388.843 342.363,389.227 299.600 C 389.582 260.136,389.699 252.593,390.403 224.103 C 390.750 210.043,390.845 208.681,391.578 207.243 C 392.213 205.998,392.424 204.553,392.615 200.140 C 392.905 193.460,393.491 191.402,395.204 191.059 L 396.378 190.824 396.501 185.112 L 396.624 179.400 396.712 185.100 C 396.828 192.631,397.539 192.631,397.701 185.100 L 397.824 179.400 397.912 185.100 L 398.000 190.800 399.000 190.800 L 400.000 190.800 400.000 117.000 L 400.000 43.200 399.000 43.200 C 398.181 43.200,397.996 43.001,397.977 42.100 C 397.891 38.009,397.336 36.621,395.483 35.865 C 394.311 35.386,394.200 35.187,394.200 33.570 C 394.200 32.185,394.059 31.810,393.551 31.847 C 393.123 31.878,392.964 31.658,393.084 31.202 C 393.262 30.520,391.384 28.639,390.853 28.967 C 390.714 29.053,390.545 28.292,390.478 27.276 C 390.332 25.053,389.860 24.400,388.400 24.400 C 387.021 24.400,386.360 23.639,386.679 22.419 C 386.979 21.273,385.961 20.400,384.324 20.400 C 383.706 20.400,383.183 20.175,383.163 19.900 C 383.143 19.625,383.098 18.860,383.063 18.200 C 383.009 17.163,382.837 16.991,381.800 16.937 C 381.140 16.902,380.375 16.857,380.100 16.837 C 379.825 16.817,379.600 16.294,379.600 15.676 C 379.600 14.039,378.727 13.021,377.581 13.321 C 376.295 13.657,375.600 12.962,375.600 11.338 C 375.600 9.846,375.367 9.682,373.005 9.514 C 371.751 9.424,371.235 9.144,370.591 8.203 C 370.140 7.544,369.418 6.942,368.986 6.864 C 368.554 6.786,368.020 6.533,367.800 6.302 C 367.525 6.014,367.576 5.983,367.962 6.203 C 368.349 6.424,368.430 6.373,368.224 6.038 C 368.059 5.771,367.536 5.583,367.062 5.621 C 365.036 5.780,364.400 5.595,364.400 4.844 C 364.400 2.954,362.651 2.120,358.500 2.029 C 357.388 2.004,357.200 1.856,357.200 1.000 L 357.200 0.000 285.400 0.000 L 213.600 0.000 213.600 0.886 M362.635 3.729 C 363.229 4.239,363.644 4.838,363.557 5.060 C 363.471 5.281,362.810 4.863,362.089 4.131 C 360.598 2.618,360.999 2.322,362.635 3.729 M369.400 8.400 C 370.103 9.176,370.099 9.200,369.262 9.200 C 368.667 9.200,368.400 8.953,368.400 8.400 C 368.400 7.960,368.462 7.600,368.538 7.600 C 368.614 7.600,369.002 7.960,369.400 8.400 M6.629 29.029 C 6.283 29.374,6.011 29.959,6.025 30.329 C 6.044 30.826,6.141 30.776,6.400 30.134 C 6.592 29.658,7.075 29.078,7.474 28.846 C 7.874 28.614,7.988 28.419,7.729 28.412 C 7.469 28.405,6.974 28.683,6.629 29.029 M391.800 30.800 C 392.503 31.576,392.499 31.600,391.662 31.600 C 391.067 31.600,390.800 31.353,390.800 30.800 C 390.800 30.360,390.862 30.000,390.938 30.000 C 391.014 30.000,391.402 30.360,391.800 30.800 M275.334 69.859 C 276.600 70.007,277.706 70.450,278.534 71.142 C 279.230 71.724,280.454 72.532,281.253 72.938 C 282.052 73.343,282.899 74.099,283.135 74.616 C 283.371 75.134,283.996 75.841,284.525 76.188 C 285.054 76.534,285.821 77.579,286.230 78.509 C 286.639 79.439,287.326 80.693,287.758 81.295 C 289.698 84.001,289.779 91.113,287.893 93.127 C 287.341 93.717,286.591 95.280,286.227 96.600 C 285.248 100.149,284.790 101.149,284.032 101.390 C 283.612 101.523,283.144 102.410,282.813 103.699 C 282.416 105.251,281.829 106.227,280.539 107.480 C 279.412 108.576,278.800 109.518,278.800 110.159 C 278.800 111.715,278.128 113.099,276.659 114.568 C 275.647 115.580,275.230 116.417,275.016 117.862 C 274.648 120.360,273.724 122.307,272.762 122.612 C 272.344 122.745,271.901 123.336,271.778 123.927 C 270.869 128.295,270.217 130.364,269.417 131.412 C 268.895 132.097,268.101 134.243,267.591 136.347 C 267.003 138.773,266.338 140.488,265.681 141.268 C 264.910 142.185,264.415 143.718,263.571 147.803 C 262.873 151.184,262.163 153.553,261.635 154.270 C 261.021 155.102,260.638 156.664,260.181 160.200 C 259.422 166.075,259.010 167.693,257.800 169.554 C 257.283 170.349,256.661 171.757,256.419 172.682 C 256.177 173.607,255.568 174.867,255.065 175.482 C 254.562 176.097,253.657 177.459,253.053 178.509 C 251.890 180.532,250.028 181.944,247.400 182.796 C 246.520 183.081,245.209 183.829,244.486 184.457 C 242.356 186.310,234.798 185.998,232.774 183.974 C 232.348 183.548,231.775 183.196,231.500 183.191 C 229.335 183.153,223.003 177.887,221.891 175.200 C 220.489 171.811,221.229 157.250,222.958 154.200 C 223.851 152.624,225.291 147.193,225.788 143.525 C 225.929 142.480,226.516 140.976,227.115 140.125 C 228.630 137.972,228.813 124.738,227.350 123.133 C 226.882 122.620,226.201 121.570,225.836 120.800 C 224.534 118.049,222.393 116.253,219.369 115.374 C 218.171 115.025,216.629 114.268,215.942 113.689 C 213.554 111.680,195.546 111.584,193.433 113.569 C 192.372 114.566,190.300 115.428,188.095 115.791 C 187.037 115.965,185.773 116.587,184.766 117.428 C 183.873 118.174,182.391 118.977,181.471 119.212 C 178.887 119.873,178.812 119.916,178.412 120.969 C 178.205 121.513,177.533 122.276,176.918 122.664 C 175.740 123.407,172.045 127.148,170.470 129.193 C 169.958 129.857,169.358 130.400,169.138 130.400 C 168.229 130.400,164.156 135.044,163.697 136.603 C 163.438 137.484,162.595 138.875,161.823 139.693 C 161.051 140.511,160.300 141.680,160.154 142.290 C 159.713 144.130,158.856 145.528,158.004 145.799 C 157.562 145.939,157.200 146.394,157.200 146.809 C 157.200 148.085,155.322 152.819,154.445 153.752 C 153.988 154.239,153.261 156.061,152.824 157.817 C 152.256 160.102,151.744 161.250,151.012 161.884 C 149.744 162.984,149.200 164.369,149.200 166.500 C 149.200 168.878,148.038 173.160,146.944 174.813 C 146.201 175.935,145.912 177.160,145.574 180.618 C 145.094 185.522,144.304 189.036,143.193 191.213 C 140.275 196.933,140.752 245.980,143.769 250.366 C 145.053 252.233,145.433 253.315,145.770 256.059 C 145.940 257.445,146.326 258.571,146.768 258.971 C 147.607 259.730,148.588 261.880,149.202 264.308 C 149.440 265.247,150.000 266.237,150.446 266.508 C 150.892 266.778,151.880 268.108,152.642 269.463 C 153.404 270.818,154.469 272.215,155.009 272.569 C 155.548 272.922,156.343 273.905,156.776 274.752 C 157.336 275.851,157.892 276.358,158.716 276.523 C 159.387 276.657,160.314 277.337,160.932 278.147 C 161.598 279.019,163.004 280.012,164.697 280.803 C 166.184 281.498,167.670 282.378,168.000 282.759 C 168.330 283.141,169.728 283.673,171.107 283.943 C 174.073 284.524,177.208 285.784,177.879 286.665 C 179.604 288.934,203.996 288.621,206.760 286.295 C 207.501 285.672,209.254 285.053,212.035 284.432 C 215.182 283.731,216.510 283.232,217.467 282.393 C 218.258 281.700,219.814 281.004,221.608 280.542 C 223.932 279.943,224.588 279.597,225.034 278.734 C 225.354 278.115,226.167 277.475,226.970 277.210 C 227.732 276.959,228.977 276.112,229.738 275.328 C 230.569 274.473,231.977 273.618,233.261 273.190 C 234.782 272.682,235.556 272.166,235.939 271.401 C 236.236 270.810,237.098 269.961,237.854 269.515 C 238.610 269.069,239.496 268.188,239.821 267.559 C 240.147 266.929,240.947 266.137,241.600 265.800 C 242.253 265.463,243.071 264.635,243.420 263.962 C 243.776 263.272,244.652 262.487,245.423 262.165 C 246.344 261.780,246.984 261.133,247.380 260.187 C 247.703 259.414,248.506 258.473,249.164 258.095 C 249.823 257.717,250.461 257.011,250.583 256.526 C 250.705 256.041,251.478 254.836,252.302 253.850 C 253.126 252.863,254.303 251.243,254.917 250.249 C 255.532 249.256,256.365 248.338,256.769 248.210 C 257.173 248.082,257.869 247.097,258.316 246.021 C 258.763 244.945,259.573 243.774,260.115 243.419 C 260.658 243.063,261.409 241.967,261.785 240.983 C 262.161 239.999,263.166 238.468,264.019 237.580 C 264.936 236.625,265.676 235.400,265.830 234.581 C 265.978 233.790,266.562 232.798,267.190 232.270 C 267.795 231.760,268.795 230.221,269.410 228.848 C 270.168 227.161,270.896 226.164,271.658 225.770 C 272.278 225.449,273.194 224.632,273.693 223.954 C 276.876 219.630,291.147 219.303,293.361 223.504 C 293.679 224.107,294.559 225.178,295.318 225.884 C 298.805 229.130,298.700 242.075,295.155 245.848 C 294.447 246.601,293.930 248.123,293.044 252.059 C 292.913 252.641,292.188 253.856,291.435 254.759 C 290.681 255.661,289.950 256.915,289.812 257.546 C 289.564 258.674,288.538 260.043,287.465 260.677 C 287.164 260.855,286.412 262.134,285.795 263.520 C 285.178 264.906,284.325 266.226,283.899 266.454 C 283.474 266.681,282.699 267.833,282.178 269.012 C 281.656 270.191,280.877 271.345,280.445 271.576 C 280.014 271.807,279.207 272.987,278.652 274.199 C 277.554 276.596,276.094 278.579,273.000 281.871 C 271.900 283.041,270.190 284.919,269.200 286.044 C 268.210 287.168,266.860 288.608,266.200 289.243 C 265.540 289.878,264.883 290.533,264.740 290.699 C 264.447 291.038,261.733 293.762,261.182 294.270 C 260.985 294.451,260.260 295.275,259.570 296.100 C 258.881 296.925,258.076 297.600,257.780 297.600 C 257.485 297.600,257.009 298.095,256.721 298.700 C 256.434 299.305,255.602 300.098,254.873 300.463 C 254.143 300.827,252.876 301.817,252.057 302.663 C 250.623 304.143,245.667 307.747,243.600 308.812 C 243.050 309.095,242.354 309.674,242.053 310.098 C 241.753 310.522,240.690 311.218,239.693 311.646 C 238.695 312.074,237.295 312.936,236.581 313.563 C 235.868 314.189,234.410 315.023,233.342 315.416 C 232.274 315.809,230.860 316.631,230.200 317.242 C 228.989 318.365,225.860 319.975,224.858 319.991 C 224.560 319.996,223.809 320.426,223.189 320.948 C 222.562 321.475,220.586 322.288,218.731 322.781 C 216.899 323.268,214.770 324.094,214.000 324.617 C 211.677 326.194,209.241 326.838,204.200 327.210 C 200.827 327.459,198.921 327.798,197.789 328.349 C 193.346 330.511,175.195 330.458,170.925 328.270 C 170.306 327.953,168.810 327.572,167.600 327.424 C 162.188 326.759,158.495 325.890,156.600 324.834 C 155.500 324.221,153.368 323.313,151.863 322.815 C 150.357 322.317,148.557 321.416,147.863 320.812 C 147.168 320.208,145.910 319.490,145.066 319.215 C 144.222 318.940,142.962 318.219,142.266 317.611 C 141.570 317.004,140.190 316.101,139.200 315.604 C 138.210 315.108,136.892 314.093,136.271 313.351 C 135.650 312.608,134.941 312.000,134.697 312.000 C 134.062 312.000,132.400 310.360,132.400 309.734 C 132.400 309.444,131.775 308.801,131.011 308.304 C 130.247 307.807,129.408 306.889,129.148 306.265 C 128.887 305.641,127.990 304.699,127.154 304.171 C 126.318 303.643,125.425 302.804,125.170 302.306 C 124.914 301.808,124.106 300.770,123.373 300.000 C 122.640 299.230,121.594 297.589,121.049 296.354 C 120.504 295.119,119.766 293.996,119.409 293.859 C 119.052 293.722,118.331 292.640,117.807 291.455 C 117.283 290.269,116.401 288.811,115.848 288.214 C 115.294 287.616,114.443 285.929,113.957 284.464 C 113.471 282.999,112.655 281.167,112.145 280.393 C 111.635 279.620,111.103 278.360,110.964 277.593 C 110.408 274.533,109.493 271.934,108.596 270.868 C 107.509 269.577,107.367 269.089,106.643 264.192 C 106.336 262.109,105.664 259.641,105.055 258.353 C 103.797 255.693,103.146 250.529,101.835 232.800 C 101.746 231.590,101.306 229.340,100.859 227.800 C 99.471 223.020,99.684 209.634,101.277 201.600 C 101.746 199.235,102.101 195.942,102.754 187.911 C 103.137 183.208,103.997 179.855,105.251 178.179 C 105.425 177.948,105.945 175.275,106.408 172.239 C 107.318 166.277,107.613 165.219,108.774 163.743 C 109.190 163.213,109.748 161.479,110.013 159.890 C 110.519 156.858,111.200 155.142,112.432 153.790 C 112.837 153.345,113.458 151.736,113.811 150.215 C 114.505 147.221,114.919 146.235,116.000 145.000 C 116.385 144.560,117.002 143.268,117.372 142.129 C 117.742 140.990,118.604 139.286,119.287 138.343 C 119.970 137.400,120.870 135.492,121.287 134.103 C 121.704 132.714,122.549 130.997,123.166 130.288 C 123.783 129.580,124.658 128.156,125.111 127.124 C 125.563 126.092,126.317 125.012,126.786 124.724 C 127.255 124.436,128.204 123.057,128.894 121.661 C 129.584 120.264,130.550 118.858,131.040 118.537 C 131.531 118.215,132.208 117.264,132.544 116.422 C 132.881 115.580,133.686 114.466,134.332 113.946 C 134.979 113.426,135.807 112.407,136.173 111.683 C 136.539 110.958,137.285 110.162,137.831 109.913 C 138.393 109.657,139.155 108.713,139.586 107.740 C 140.070 106.643,142.067 104.309,145.084 101.309 C 152.925 93.515,155.103 91.599,156.427 91.335 C 157.230 91.174,157.790 90.752,158.027 90.129 C 158.265 89.503,159.260 88.758,160.896 87.981 C 162.273 87.327,164.021 86.337,164.781 85.781 C 165.540 85.225,166.938 84.575,167.888 84.336 C 168.837 84.097,170.266 83.383,171.064 82.749 C 172.683 81.463,175.806 80.400,177.973 80.399 C 179.307 80.399,179.972 80.128,183.196 78.275 C 185.774 76.793,192.635 76.293,207.200 76.526 C 221.272 76.752,222.464 76.895,225.053 78.676 C 225.959 79.300,228.124 80.104,230.281 80.619 C 232.663 81.187,234.378 81.847,235.140 82.488 C 235.848 83.084,237.292 83.671,238.754 83.959 C 240.477 84.298,241.745 84.870,243.094 85.916 C 244.674 87.140,245.312 87.389,246.823 87.369 C 249.489 87.334,249.842 87.090,251.239 84.318 C 251.937 82.933,252.926 81.410,253.438 80.934 C 253.949 80.458,254.489 79.558,254.638 78.934 C 254.956 77.594,255.908 76.400,256.657 76.400 C 256.950 76.400,257.627 75.708,258.160 74.863 C 258.694 74.017,259.686 73.096,260.365 72.814 C 261.044 72.533,261.600 72.149,261.600 71.961 C 261.600 69.937,267.826 68.984,275.334 69.859 M396.480 360.613 C 396.621 360.754,396.165 361.379,395.468 362.001 C 394.244 363.095,394.168 363.928,395.333 363.481 C 396.514 363.028,397.679 360.916,396.910 360.621 C 396.533 360.476,396.339 360.473,396.480 360.613 M9.200 369.200 C 9.200 369.640,9.138 370.000,9.062 370.000 C 8.986 370.000,8.598 369.640,8.200 369.200 C 7.497 368.424,7.501 368.400,8.338 368.400 C 8.933 368.400,9.200 368.647,9.200 369.200 M388.580 373.767 C 387.204 375.204,387.095 375.433,387.856 375.287 C 388.919 375.084,389.803 374.146,390.106 372.900 C 390.227 372.405,390.297 372.017,390.263 372.038 C 390.228 372.058,389.471 372.837,388.580 373.767 M12.044 374.642 C 12.570 374.933,12.767 375.178,12.482 375.186 C 11.810 375.204,9.996 373.390,10.014 372.718 C 10.022 372.433,10.267 372.630,10.558 373.156 C 10.850 373.682,11.518 374.350,12.044 374.642 M386.432 377.271 C 386.414 377.641,386.117 378.226,385.771 378.571 C 385.426 378.917,385.329 379.200,385.557 379.200 C 386.112 379.200,386.902 377.678,386.658 377.078 C 386.548 376.808,386.449 376.892,386.432 377.271 M378.800 385.500 C 378.800 385.738,378.305 386.114,377.700 386.335 C 377.095 386.556,376.881 386.751,377.224 386.768 C 378.054 386.810,379.478 385.745,379.099 385.366 C 378.935 385.201,378.800 385.262,378.800 385.500 M373.780 388.567 C 372.404 390.004,372.295 390.233,373.056 390.087 C 374.119 389.884,375.003 388.946,375.306 387.700 C 375.427 387.205,375.497 386.817,375.463 386.838 C 375.428 386.858,374.671 387.637,373.780 388.567 M31.208 391.410 C 31.981 392.341,31.429 392.517,30.602 391.602 C 30.203 391.161,30.062 390.800,30.289 390.800 C 30.516 390.800,30.930 391.074,31.208 391.410 M39.010 395.230 C 39.401 396.462,39.052 396.520,37.999 395.398 C 37.073 394.413,37.072 394.400,37.903 394.400 C 38.405 394.400,38.853 394.736,39.010 395.230 M361.836 395.631 C 361.266 396.308,360.800 397.051,360.800 397.282 C 360.800 397.912,363.380 395.802,363.529 395.050 C 363.733 394.025,362.965 394.288,361.836 395.631 " stroke="none" fill="#313c4e" fill-rule="evenodd"></path></g></svg>