<svg id="medium" xmlns="http://www.w3.org/2000/svg" width="32" height="32" viewBox="0 0 32 32">  <defs>    <style>      .cls-2{fill:#313c4e}    </style>  </defs>  <path id="Path_2933" data-name="Path 2933" class="cls-2" d="M19.537 20.592a6.769 6.769 0 1 1-6.769-6.815 6.792 6.792 0 0 1 6.769 6.815" transform="translate(-2 -4.592)"/>  <path id="Path_2934" data-name="Path 2934" class="cls-2" d="M34.06 20.792c0 3.543-1.515 6.415-3.384 6.415s-3.385-2.872-3.385-6.415 1.515-6.415 3.385-6.415 3.384 2.872 3.384 6.415" transform="translate(-9.097 -4.792)"/>  <path id="Path_2935" data-name="Path 2935" class="cls-2" d="M40.81 21.126c0 3.175-.533 5.748-1.19 5.748s-1.191-2.573-1.191-5.748.533-5.748 1.191-5.748 1.19 2.573 1.19 5.748" transform="translate(-12.81 -5.126)"/></svg>